<svg width="54" height="32" viewBox="0 0 54 32" fill="none" xmlns="http://www.w3.org/2000/svg">
<rect width="54" height="32" rx="4" fill="#FECC00"/>
<path d="M54 10V22H0V10H54Z" fill="#FECC00"/>
<path d="M17.4108 15.0139C17.1748 15.3356 16.78 15.895 16.5397 16.2217C16.4177 16.3879 16.1974 16.6895 16.9278 16.6895C17.7005 16.6895 20.7731 16.6895 20.7731 16.6895C20.7731 16.6895 21.3928 15.8405 21.9124 15.1305C22.6191 14.1646 21.9736 12.1548 19.447 12.1548C17.1856 12.1548 9.49673 12.1548 9.49673 12.1548L7.77148 14.5151C7.77148 14.5151 16.7155 14.5151 17.1745 14.5151C17.6492 14.5151 17.6428 14.697 17.4108 15.0139ZM14.5859 17.2718C13.8555 17.2718 14.0758 16.9695 14.1978 16.8034C14.4381 16.4767 14.8393 15.9232 15.0753 15.6014C15.3076 15.2846 15.3137 15.1027 14.8384 15.1027C14.3797 15.1027 10.538 15.1027 10.538 15.1027L7.07308 19.8444C7.07308 19.8444 13.2616 19.8444 15.523 19.8444C18.3138 19.8444 19.8676 17.933 20.3466 17.2721C20.3466 17.2718 15.3583 17.2718 14.5859 17.2718ZM20.0827 19.8444H25.0397L26.9189 17.2715L21.9625 17.2721C21.961 17.2718 20.0827 19.8444 20.0827 19.8444ZM32.8723 12.1548L30.971 14.7552H28.7587L30.6591 12.1548H25.7037L22.3884 16.6895H34.5128L37.8272 12.1548H32.8723ZM27.252 19.8444H32.2071L34.0872 17.2721H29.1321C29.1302 17.2718 27.252 19.8444 27.252 19.8444ZM0 18.2866V18.833H6.90348L7.3023 18.2866H0ZM8.04432 17.2718H0V17.8176H7.64458L8.04432 17.2718ZM0 19.8444H6.16391L6.56088 19.3011H0V19.8444ZM46.7254 18.8327H54V18.2863H47.1248L46.7254 18.8327ZM45.9864 19.8444H54V19.3011H46.3831L45.9864 19.8444ZM47.8656 17.2718L47.4671 17.8182H54V17.2718H47.8656ZM41.3751 16.6895L44.6901 12.1548H39.4418C39.44 12.1548 36.1243 16.6895 36.1243 16.6895H41.3751ZM35.6994 17.2718C35.6994 17.2718 35.3371 17.7702 35.1611 18.0103C34.5389 18.8568 35.0892 19.8444 37.1202 19.8444C39.4664 19.8444 45.0785 19.8444 45.0785 19.8444L46.9586 17.2721H35.6994V17.2718Z" fill="#D50029"/>
</svg>
