<svg width="20" height="21" viewBox="0 0 20 21" fill="none" xmlns="http://www.w3.org/2000/svg">
<g clip-path="url(#clip0)">
<path d="M20 10.3359C20 4.81309 15.5229 0.335938 10 0.335938C4.47715 0.335938 0 4.81309 0 10.3359C0 15.3271 3.65684 19.4643 8.4375 20.2145V13.2266H5.89844V10.3359H8.4375V8.13281C8.4375 5.62656 9.93047 4.24219 12.2146 4.24219C13.3084 4.24219 14.4531 4.4375 14.4531 4.4375V6.89844H13.1922C11.95 6.89844 11.5625 7.66934 11.5625 8.46094V10.3359H14.3359L13.8926 13.2266H11.5625V20.2145C16.3432 19.4643 20 15.3271 20 10.3359Z" fill="black"/>
</g>
<defs>
<clipPath id="clip0">
<rect width="20" height="20" fill="white" transform="translate(0 0.335938)"/>
</clipPath>
</defs>
</svg>
