<svg width="20" height="21" viewBox="0 0 20 21" fill="none" xmlns="http://www.w3.org/2000/svg">
<g clip-path="url(#clip0)">
<path fill-rule="evenodd" clip-rule="evenodd" d="M14.0358 5.79267C13.0033 4.80792 11.6254 4.27145 10.1997 4.2935C7.59085 4.2935 5.37517 6.05354 4.58516 8.42354V8.4236C4.16627 9.66556 4.16627 11.0104 4.58515 12.2524H4.58882C5.3825 14.6187 7.59452 16.3788 10.2034 16.3788C11.5501 16.3788 12.7062 16.0343 13.6023 15.4259V15.4234C14.6568 14.7253 15.377 13.6266 15.6012 12.3847H10.1997V8.53384H19.632C19.7496 9.20259 19.8047 9.88604 19.8047 10.5658C19.8047 13.6073 18.7177 16.1788 16.8264 17.9205L16.8284 17.922C15.1712 19.4506 12.8967 20.3361 10.1997 20.3361C6.41869 20.3361 2.96104 18.205 1.26345 14.8281V14.8281C-0.154877 12.0025 -0.154873 8.67345 1.26346 5.84781H1.26348L1.26345 5.84779C2.96104 2.4673 6.41869 0.336123 10.1997 0.336123C12.6836 0.306728 15.083 1.24004 16.8909 2.93763L14.0358 5.79267Z" fill="black"/>
</g>
<defs>
<clipPath id="clip0">
<rect width="20" height="20" fill="white" transform="translate(0 0.335938)"/>
</clipPath>
</defs>
</svg>
