<svg width="20" height="21" viewBox="0 0 20 21" fill="none" xmlns="http://www.w3.org/2000/svg">
<path d="M10 0.335938C4.47656 0.335938 0 4.8125 0 10.3359C0 14.5742 2.63672 18.1914 6.35547 19.6484C6.26953 18.8555 6.1875 17.6445 6.39062 16.7812C6.57422 16 7.5625 11.8125 7.5625 11.8125C7.5625 11.8125 7.26172 11.2148 7.26172 10.3281C7.26172 8.9375 8.06641 7.89844 9.07031 7.89844C9.92187 7.89844 10.3359 8.53906 10.3359 9.30859C10.3359 10.168 9.78906 11.4492 9.50781 12.6367C9.27344 13.6328 10.0078 14.4453 10.9883 14.4453C12.7656 14.4453 14.1328 12.5703 14.1328 9.86719C14.1328 7.47266 12.4141 5.79688 9.95703 5.79688C7.11328 5.79688 5.44141 7.92969 5.44141 10.1367C5.44141 10.9961 5.77344 11.918 6.1875 12.418C6.26953 12.5156 6.28125 12.6055 6.25781 12.7031C6.18359 13.0195 6.01172 13.6992 5.98047 13.8359C5.9375 14.0195 5.83594 14.0586 5.64453 13.9688C4.39453 13.3867 3.61328 11.5625 3.61328 10.0938C3.61328 6.9375 5.90625 4.04297 10.2188 4.04297C13.6875 4.04297 16.3828 6.51563 16.3828 9.82031C16.3828 13.2656 14.2109 16.0391 11.1953 16.0391C10.1836 16.0391 9.23047 15.5117 8.90234 14.8906C8.90234 14.8906 8.40234 16.8008 8.28125 17.2695C8.05469 18.1367 7.44531 19.2266 7.03906 19.8906C7.97656 20.1797 8.96875 20.3359 10 20.3359C15.5234 20.3359 20 15.8594 20 10.3359C20 4.8125 15.5234 0.335938 10 0.335938Z" fill="black"/>
</svg>
