<svg width="20" height="21" viewBox="0 0 20 21" fill="none" xmlns="http://www.w3.org/2000/svg">
<g clip-path="url(#clip0)">
<path d="M10 2.13672C12.6719 2.13672 12.9883 2.14844 14.0391 2.19531C15.0156 2.23828 15.543 2.40234 15.8945 2.53906C16.3594 2.71875 16.6953 2.9375 17.043 3.28516C17.3945 3.63672 17.6094 3.96875 17.7891 4.43359C17.9258 4.78516 18.0898 5.31641 18.1328 6.28906C18.1797 7.34375 18.1914 7.66016 18.1914 10.3281C18.1914 13 18.1797 13.3164 18.1328 14.3672C18.0898 15.3438 17.9258 15.8711 17.7891 16.2227C17.6094 16.6875 17.3906 17.0234 17.043 17.3711C16.6914 17.7227 16.3594 17.9375 15.8945 18.1172C15.543 18.2539 15.0117 18.418 14.0391 18.4609C12.9844 18.5078 12.668 18.5195 10 18.5195C7.32813 18.5195 7.01172 18.5078 5.96094 18.4609C4.98438 18.418 4.45703 18.2539 4.10547 18.1172C3.64063 17.9375 3.30469 17.7188 2.95703 17.3711C2.60547 17.0195 2.39063 16.6875 2.21094 16.2227C2.07422 15.8711 1.91016 15.3398 1.86719 14.3672C1.82031 13.3125 1.80859 12.9961 1.80859 10.3281C1.80859 7.65625 1.82031 7.33984 1.86719 6.28906C1.91016 5.3125 2.07422 4.78516 2.21094 4.43359C2.39063 3.96875 2.60938 3.63281 2.95703 3.28516C3.30859 2.93359 3.64063 2.71875 4.10547 2.53906C4.45703 2.40234 4.98828 2.23828 5.96094 2.19531C7.01172 2.14844 7.32813 2.13672 10 2.13672ZM10 0.335938C7.28516 0.335938 6.94531 0.347656 5.87891 0.394531C4.81641 0.441406 4.08594 0.613281 3.45313 0.859375C2.79297 1.11719 2.23438 1.45703 1.67969 2.01563C1.12109 2.57031 0.78125 3.12891 0.523438 3.78516C0.277344 4.42188 0.105469 5.14844 0.0585938 6.21094C0.0117188 7.28125 0 7.62109 0 10.3359C0 13.0508 0.0117188 13.3906 0.0585938 14.457C0.105469 15.5195 0.277344 16.25 0.523438 16.8828C0.78125 17.543 1.12109 18.1016 1.67969 18.6562C2.23438 19.2109 2.79297 19.5547 3.44922 19.8086C4.08594 20.0547 4.8125 20.2266 5.875 20.2734C6.94141 20.3203 7.28125 20.332 9.99609 20.332C12.7109 20.332 13.0508 20.3203 14.1172 20.2734C15.1797 20.2266 15.9102 20.0547 16.543 19.8086C17.1992 19.5547 17.7578 19.2109 18.3125 18.6562C18.8672 18.1016 19.2109 17.543 19.4648 16.8867C19.7109 16.25 19.8828 15.5234 19.9297 14.4609C19.9766 13.3945 19.9883 13.0547 19.9883 10.3398C19.9883 7.625 19.9766 7.28516 19.9297 6.21875C19.8828 5.15625 19.7109 4.42578 19.4648 3.79297C19.2188 3.12891 18.8789 2.57031 18.3203 2.01563C17.7656 1.46094 17.207 1.11719 16.5508 0.863281C15.9141 0.617188 15.1875 0.445313 14.125 0.398438C13.0547 0.347656 12.7148 0.335938 10 0.335938Z" fill="black"/>
<path d="M10 5.19922C7.16406 5.19922 4.86328 7.5 4.86328 10.3359C4.86328 13.1719 7.16406 15.4727 10 15.4727C12.8359 15.4727 15.1367 13.1719 15.1367 10.3359C15.1367 7.5 12.8359 5.19922 10 5.19922ZM10 13.668C8.16016 13.668 6.66797 12.1758 6.66797 10.3359C6.66797 8.49609 8.16016 7.00391 10 7.00391C11.8398 7.00391 13.332 8.49609 13.332 10.3359C13.332 12.1758 11.8398 13.668 10 13.668Z" fill="black"/>
<path d="M16.5391 4.99561C16.5391 5.65967 16 6.19483 15.3398 6.19483C14.6758 6.19483 14.1406 5.65576 14.1406 4.99561C14.1406 4.33154 14.6797 3.79639 15.3398 3.79639C16 3.79639 16.5391 4.33545 16.5391 4.99561Z" fill="black"/>
</g>
<defs>
<clipPath id="clip0">
<rect width="20" height="20" fill="white" transform="translate(0 0.335938)"/>
</clipPath>
</defs>
</svg>
