<svg width="18" height="14" viewBox="0 0 18 14" fill="none" xmlns="http://www.w3.org/2000/svg">
<path fill-rule="evenodd" clip-rule="evenodd" d="M2.66667 0.666504C1.28596 0.666504 0.166672 1.78579 0.166672 3.16651V10.8332C0.166672 12.2139 1.28596 13.3332 2.66667 13.3332H15.3333C16.7141 13.3332 17.8333 12.2139 17.8333 10.8332V3.1665C17.8333 1.78579 16.7141 0.666504 15.3333 0.666504H13.1667H9H4.83334H2.66667ZM12.6667 1.6665V6.1665C12.6667 6.44265 12.8905 6.6665 13.1667 6.6665C13.4428 6.6665 13.6667 6.44265 13.6667 6.1665V1.6665H15.3333C16.1618 1.6665 16.8333 2.33808 16.8333 3.1665V10.8332C16.8333 11.6616 16.1618 12.3332 15.3333 12.3332H2.66667C1.83824 12.3332 1.16667 11.6616 1.16667 10.8332V3.16651C1.16667 2.33808 1.83825 1.6665 2.66667 1.6665H4.33334V6.1665C4.33334 6.44265 4.5572 6.6665 4.83334 6.6665C5.10948 6.6665 5.33334 6.44265 5.33334 6.1665V1.6665H8.5V6.1665C8.5 6.44265 8.72386 6.6665 9 6.6665C9.27615 6.6665 9.5 6.44265 9.5 6.1665V1.6665H12.6667Z" fill="#201F1E"/>
</svg>
