<svg width="53" height="32" viewBox="0 0 53 32" fill="none" xmlns="http://www.w3.org/2000/svg">
<rect x="0.5" y="0.5" width="52" height="31" rx="3.5" fill="white"/>
<path d="M26.5926 24.9275C29.0012 22.709 30.5224 19.5399 30.5224 16.0538C30.5224 12.5043 29.0012 9.33507 26.5926 7.18002C24.4376 5.27851 21.6487 4.07422 18.5429 4.07422C11.8876 4.07422 6.49994 9.46184 6.49994 16.0538C6.49994 22.709 11.8876 28.0967 18.5429 28.0967C21.6487 28.0333 24.4376 26.829 26.5926 24.9275Z" fill="#3362AB"/>
<path d="M26.5926 24.9271C29.0012 22.7087 30.5224 19.5395 30.5224 16.0534C30.5224 12.5039 29.0012 9.33474 26.5926 7.17969" fill="#3362AB"/>
<path d="M26.5926 24.9271C29.0012 22.7087 30.5224 19.5395 30.5224 16.0534C30.5224 12.5039 29.0012 9.33474 26.5926 7.17969" stroke="#3362AB" stroke-width="0.1963"/>
<path d="M34.6424 4.01074C31.5365 4.01074 28.6843 5.21503 26.5926 7.11654C26.1489 7.49685 25.7686 7.94053 25.3883 8.38422H27.7969C28.1138 8.76452 28.4307 9.20821 28.6843 9.65189H24.4376C24.184 10.0322 23.9305 10.4759 23.7403 10.9196H29.3815C29.5716 11.3633 29.7618 11.7436 29.8886 12.1872H23.2333C23.1065 12.6309 22.9797 13.0112 22.853 13.4549H30.2055C30.3956 14.2789 30.459 15.1029 30.459 15.9903C30.459 17.3213 30.2689 18.589 29.8252 19.7933H23.1699C23.2967 20.237 23.4868 20.6807 23.6769 21.061H29.3181C29.1279 21.5047 28.8744 21.9483 28.6209 22.3286H24.3742C24.6277 22.7723 24.9446 23.216 25.2615 23.5963H27.6701C27.2898 24.04 26.9095 24.4837 26.4658 24.864C28.6209 26.7655 31.4098 27.9698 34.5156 27.9698C41.1709 27.9698 46.4951 22.5822 46.4951 15.9269C46.6853 9.39836 41.2976 4.01074 34.6424 4.01074Z" fill="#C9191B"/>
<path d="M17.0217 18.9691H15.5004L16.3878 14.2787L14.3595 18.9691H13.0285L12.775 14.3421L11.8876 18.9691H10.5565L11.6974 12.8843H14.0426L14.1694 16.6873L15.8174 12.8843H18.2259L17.0217 18.9691Z" fill="white"/>
<path d="M33.7549 18.9692C33.3746 19.096 32.9944 19.1594 32.6774 19.1594C31.9168 19.1594 31.4731 18.7791 31.4731 18.0818C31.4731 17.9551 31.4731 17.7649 31.5365 17.6382L31.5999 17.1311L31.6633 16.7508L32.3605 12.9478H33.8183L33.6282 14.0887H34.3888L34.1986 15.293H33.438L33.0577 17.3846C33.0577 17.448 33.0577 17.5748 33.0577 17.5748C33.0577 17.8283 33.2479 17.9551 33.5648 17.9551C33.755 17.9551 33.8817 17.9551 33.9451 17.8917L33.7549 18.9692Z" fill="white"/>
<path d="M38.065 14.0888C37.9383 14.0254 37.9383 14.0254 37.8749 14.0254C37.8115 14.0254 37.7481 14.0254 37.7481 14.0254C37.6847 14.0254 37.6214 14.0254 37.558 14.0254C37.0509 14.0254 36.734 14.2155 36.2269 14.8494L36.3537 14.0888H35.1494L34.262 19.0327H35.7832C36.2903 15.9903 36.5438 15.4832 37.241 15.4832C37.3044 15.4832 37.3678 15.4832 37.4312 15.4832L37.6214 15.5466L38.065 14.0888Z" fill="white"/>
<path d="M27.7969 15.6099C27.7969 16.2437 28.1772 16.6874 28.9378 17.0043C29.5716 17.2579 29.635 17.3213 29.635 17.5748C29.635 17.8917 29.3815 18.0185 28.7476 18.0185C28.304 18.0185 27.8603 17.9551 27.4166 17.8283L27.2264 18.9692H27.2898L27.5434 19.0326C27.6067 19.0326 27.7969 19.096 27.9237 19.096C28.304 19.096 28.5575 19.1594 28.7476 19.1594C30.3322 19.1594 31.0929 18.6523 31.0929 17.5114C31.0929 16.8142 30.7759 16.4339 30.0153 16.117C29.3815 15.8634 29.3181 15.8 29.3181 15.5465C29.3181 15.293 29.5716 15.1662 30.0787 15.1662C30.3956 15.1662 30.7759 15.1662 31.1562 15.2296L31.3464 14.0887C30.9661 14.0253 30.3956 13.9619 30.0153 13.9619C28.3673 13.9619 27.7969 14.7225 27.7969 15.6099Z" fill="white"/>
<path d="M20.8246 16.8142C20.6345 16.8142 20.5711 16.8142 20.5077 16.8142C19.6837 16.8142 19.24 17.0677 19.24 17.5748C19.24 17.8917 19.4302 18.0819 19.7471 18.0819C20.3176 18.0185 20.7613 17.5114 20.8246 16.8142ZM21.9022 18.9692H20.6345L20.6979 18.4622C20.3176 18.8425 19.8105 19.0326 19.1133 19.0326C18.2893 19.0326 17.7822 18.4622 17.7822 17.7016C17.7822 16.4973 18.733 15.8 20.381 15.8C20.5711 15.8 20.7613 15.8 21.0148 15.8634C21.0782 15.6733 21.0782 15.6099 21.0782 15.5465C21.0782 15.2296 20.8246 15.1028 20.1274 15.1028C19.6837 15.1028 19.24 15.1662 18.9231 15.2296L18.733 15.293L18.6062 15.3564L18.7964 14.2154C19.557 14.0253 20.0007 13.9619 20.5711 13.9619C21.8388 13.9619 22.536 14.469 22.536 15.4197C22.536 15.6733 22.536 15.8634 22.4092 16.3705L22.0923 18.1452L22.0289 18.4622L21.9656 18.7157V18.9058L21.9022 18.9692Z" fill="white"/>
<path d="M26.0222 15.9267C26.0222 15.8 26.0222 15.7366 26.0222 15.6732C26.0222 15.2929 25.7686 15.0393 25.3249 15.0393C24.8179 15.0393 24.5009 15.3563 24.3742 15.9267H26.0222ZM26.7828 18.9058C26.2757 19.0325 25.7686 19.0959 25.2615 19.0959C23.6136 19.0959 22.7262 18.3353 22.7262 16.8775C22.7262 15.1661 23.8037 13.8984 25.3249 13.8984C26.5292 13.8984 27.3532 14.5957 27.3532 15.6732C27.3532 16.0535 27.2898 16.3704 27.1631 16.8775H24.184C24.184 16.9409 24.184 17.0042 24.184 17.0042C24.184 17.5747 24.6277 17.8916 25.5151 17.8916C26.0221 17.8916 26.5292 17.7648 27.0997 17.5747L26.7828 18.9058Z" fill="white"/>
<path d="M41.1709 16.117C41.1709 15.6099 40.9807 15.1028 40.3469 15.1028C39.5863 15.1028 39.1426 15.9902 39.1426 16.8142C39.1426 17.5114 39.4595 17.9551 40.03 17.9551C40.3469 17.9551 41.0441 17.5114 41.1709 16.7508C41.1709 16.5606 41.1709 16.3071 41.1709 16.117ZM42.7555 16.7508C42.5019 18.3988 41.361 19.1594 39.8398 19.1594C38.1285 19.1594 37.4946 18.1452 37.4946 16.8776C37.4946 15.1028 38.6355 13.9619 40.4103 13.9619C41.9949 13.9619 42.7555 14.9127 42.7555 16.1803C42.8189 16.4339 42.8189 16.4339 42.7555 16.7508Z" fill="white"/>
<rect x="0.5" y="0.5" width="52" height="31" rx="3.5" stroke="#EDEBE9"/>
</svg>
