<svg width="53" height="32" viewBox="0 0 53 32" fill="none" xmlns="http://www.w3.org/2000/svg">
<rect x="0.5" y="0.5" width="52" height="31" rx="3.5" fill="white"/>
<path d="M25.2504 17.7318V22.371H23.7732V10.9143H27.6909C28.1585 10.9046 28.6235 10.9872 29.0589 11.1575C29.4943 11.3277 29.8916 11.5822 30.2278 11.9062C30.5674 12.2105 30.8376 12.5837 31.0204 13.0008C31.2032 13.4178 31.2942 13.869 31.2875 14.324C31.2972 14.7814 31.2075 15.2356 31.0246 15.6553C30.8417 16.075 30.5699 16.4503 30.2278 16.7555C29.5427 17.4064 28.6971 17.7315 27.6909 17.7309H25.2504V17.7318ZM25.2504 12.3248V16.3241H27.7276C27.9992 16.3321 28.2694 16.2836 28.5211 16.1816C28.7728 16.0796 29.0003 15.9264 29.1892 15.7317C29.377 15.5498 29.5263 15.3321 29.6283 15.0917C29.7303 14.8512 29.7828 14.5928 29.7828 14.3318C29.7828 14.0707 29.7303 13.8123 29.6283 13.5719C29.5263 13.3314 29.377 13.1138 29.1892 12.9318C29.0027 12.7331 28.7759 12.5761 28.524 12.4713C28.272 12.3665 28.0005 12.3163 27.7276 12.3239H25.2504V12.3248Z" fill="#5F6368"/>
<path d="M34.6913 14.2764C35.7831 14.2764 36.645 14.5671 37.2768 15.1484C37.9086 15.7298 38.2243 16.5269 38.2237 17.5398V22.3709H36.8107V21.2831H36.7465C36.1348 22.1789 35.3213 22.6268 34.306 22.6268C33.4392 22.6268 32.7141 22.3709 32.1306 21.859C31.8505 21.624 31.6267 21.3298 31.4752 20.9977C31.3238 20.6656 31.2487 20.304 31.2553 19.9393C31.2553 19.1282 31.563 18.4831 32.1783 18.0041C32.7936 17.5251 33.6151 17.285 34.6427 17.2838C35.5198 17.2838 36.2422 17.4438 36.8098 17.7637V17.4273C36.8115 17.1787 36.7576 16.9328 36.6521 16.7075C36.5465 16.4822 36.392 16.2831 36.1997 16.1247C35.809 15.7736 35.3 15.582 34.7739 15.5881C33.9487 15.5881 33.2958 15.9349 32.815 16.6284L31.514 15.8121C32.2297 14.7883 33.2888 14.2764 34.6913 14.2764ZM32.7802 19.9713C32.7792 20.1586 32.8231 20.3434 32.9083 20.5104C32.9936 20.6774 33.1176 20.8216 33.2701 20.9311C33.5968 21.1872 34.0023 21.3228 34.4179 21.3151C35.0412 21.314 35.6387 21.0668 36.0795 20.6276C36.5688 20.1688 36.8135 19.6303 36.8135 19.0124C36.3529 18.6468 35.7106 18.4639 34.8867 18.4639C34.2867 18.4639 33.7863 18.6081 33.3857 18.8963C32.9811 19.1888 32.7802 19.5444 32.7802 19.9713Z" fill="#5F6368"/>
<path d="M46.3343 14.5322L41.4018 25.8261H39.8769L41.7073 21.8744L38.464 14.5322H40.0696L42.4138 20.1632H42.4459L44.7259 14.5322H46.3343Z" fill="#5F6368"/>
<path d="M19.2811 16.7318C19.2816 16.2833 19.2436 15.8356 19.1673 15.3936H12.9375V17.9284H16.5057C16.4326 18.3332 16.2781 18.7192 16.0514 19.0629C15.8246 19.4067 15.5303 19.7011 15.1863 19.9285V21.5739H17.3158C18.5627 20.4285 19.2811 18.7346 19.2811 16.7318Z" fill="#4285F4"/>
<path d="M12.9375 23.1633C14.7202 23.1633 16.2213 22.5801 17.3158 21.5746L15.1863 19.9291C14.5936 20.3295 13.8303 20.5581 12.9375 20.5581C11.2145 20.5581 9.75201 19.4008 9.22904 17.8413H7.03531V19.537C7.58513 20.6271 8.42823 21.5434 9.47047 22.1838C10.5127 22.8241 11.7131 23.1632 12.9375 23.1633Z" fill="#34A853"/>
<path d="M9.22899 17.8415C8.95252 17.0243 8.95252 16.1393 9.22899 15.3221V13.6265H7.03527C6.57273 14.5435 6.33185 15.5555 6.33185 16.5818C6.33185 17.6081 6.57273 18.6201 7.03527 19.5371L9.22899 17.8415Z" fill="#FBBC04"/>
<path d="M12.9376 12.6057C13.8796 12.5903 14.7899 12.945 15.4717 13.5929L17.3571 11.7144C16.1615 10.5956 14.5777 9.98135 12.9376 10.0004C11.7131 10.0005 10.5127 10.3396 9.47047 10.98C8.42823 11.6203 7.58513 12.5367 7.03531 13.6267L9.22904 15.3224C9.75201 13.7629 11.2145 12.6057 12.9376 12.6057Z" fill="#EA4335"/>
<rect x="0.5" y="0.5" width="52" height="31" rx="3.5" stroke="#EDEBE9"/>
</svg>
