<svg width="54" height="32" viewBox="0 0 54 32" fill="none" xmlns="http://www.w3.org/2000/svg">
<rect x="0.5" y="0.5" width="53" height="31" rx="3.5" fill="white"/>
<g clip-path="url(#clip0)">
<g clip-path="url(#clip1)">
<path d="M24.5368 16.9538L24.7499 15.4702H24.2526H21.7663L23.4712 4.66098C23.4712 4.66098 23.4712 4.59033 23.5423 4.59033H23.6133H27.8045C29.1543 4.59033 30.1488 4.87293 30.6461 5.43812C30.8592 5.72071 31.0013 6.00331 31.0723 6.2859C31.1433 6.63914 31.1433 6.99238 31.0723 7.48693V7.76952L31.2854 7.91082C31.4985 7.98147 31.6406 8.12276 31.7827 8.26406C31.9958 8.47601 32.1379 8.7586 32.1379 9.11185C32.2089 9.46509 32.2089 9.88898 32.0668 10.3835C31.9248 10.9487 31.7827 11.3726 31.5696 11.7965C31.3565 12.1497 31.0723 12.4323 30.7881 12.7149C30.504 12.9269 30.0778 13.0682 29.7226 13.2095C29.2963 13.2801 28.8701 13.3508 28.3729 13.3508H28.0177C27.8045 13.3508 27.5914 13.4214 27.3783 13.5627C27.2362 13.704 27.0942 13.916 27.0231 14.1279V14.2692L26.5969 16.8832V16.9538V17.0245C26.5969 17.0245 26.5969 17.0245 26.5259 17.0245H24.5368V16.9538Z" fill="#263577"/>
<path d="M31.5695 7.4873C31.5695 7.55795 31.5695 7.6286 31.4985 7.69925C30.9302 10.5252 29.0832 11.4436 26.6679 11.4436H25.4603C25.1761 11.4436 24.892 11.6556 24.892 11.9382L24.2526 15.8945L24.1105 17.0249C24.1105 17.2368 24.2526 17.3781 24.3947 17.3781H26.5969C26.881 17.3781 27.0941 17.1662 27.0941 16.9542V16.8129L27.5204 14.2696V14.1283C27.5914 13.8457 27.8045 13.7044 28.0176 13.7044H28.3728C30.504 13.7044 32.1379 12.8566 32.5641 10.3839C32.7772 9.32417 32.6351 8.47639 32.1379 7.9112C31.9958 7.7699 31.7827 7.6286 31.5695 7.4873Z" fill="#2199D6"/>
<path d="M31.0012 7.27493C30.9302 7.27493 30.8592 7.20429 30.7171 7.20429C30.6461 7.20429 30.504 7.13364 30.4329 7.13364C30.0777 7.06299 29.7226 7.06299 29.3674 7.06299H26.0996C26.0286 7.06299 25.9575 7.06299 25.8865 7.13364C25.7444 7.20428 25.6024 7.34558 25.6024 7.48688L24.892 11.8671V12.0084C24.963 11.7258 25.1761 11.5139 25.4603 11.5139H26.6679C29.0832 11.5139 30.9302 10.5248 31.4985 7.76947C31.4985 7.69883 31.4985 7.62818 31.5696 7.55753C31.4275 7.48688 31.2854 7.41623 31.1433 7.34558C31.0723 7.27494 31.0012 7.27493 31.0012 7.27493Z" fill="#252C5E"/>
<path d="M25.6024 7.48699C25.6024 7.34569 25.7445 7.20439 25.8865 7.13374C25.9576 7.13374 26.0286 7.0631 26.0996 7.0631H29.3674C29.7226 7.0631 30.1488 7.0631 30.433 7.13374C30.504 7.13374 30.6461 7.13375 30.7171 7.2044C30.7882 7.2044 30.8592 7.27504 31.0013 7.27504C31.0723 7.27504 31.0723 7.27504 31.1434 7.34569C31.2854 7.41634 31.4275 7.48699 31.5696 7.55764C31.7117 6.49791 31.5696 5.79142 31.0013 5.15558C30.3619 4.4491 29.2253 4.1665 27.8046 4.1665H23.6133C23.3292 4.1665 23.045 4.37845 23.045 4.66104L21.3401 15.5409C21.3401 15.7529 21.4822 15.9648 21.6953 15.9648H24.2526L24.892 11.8672L25.6024 7.48699Z" fill="#263577"/>
</g>
<g clip-path="url(#clip2)">
<path d="M12.5438 20.2039C12.4017 21.2636 11.5492 21.2636 10.7678 21.2636H10.3416L10.6968 19.2148C10.6968 19.0735 10.8389 19.0028 10.9809 19.0028H11.1941C11.7624 19.0028 12.2596 19.0028 12.5438 19.2854C12.5438 19.568 12.5438 19.8506 12.5438 20.2039ZM12.1886 17.3779H9.13394C8.92083 17.3779 8.77876 17.5192 8.70772 17.7312L7.50006 25.5025C7.50006 25.6438 7.57111 25.7851 7.78422 25.7851H9.20499C9.4181 25.7851 9.56017 25.6438 9.63121 25.4319L9.9864 23.3124C9.9864 23.1005 10.1995 22.9592 10.4126 22.9592H11.4072C13.3962 22.9592 14.5328 21.9701 14.888 20.0626C15.0301 19.2148 14.888 18.579 14.5328 18.0844C13.9645 17.6605 13.1831 17.3779 12.1886 17.3779Z" fill="#263577"/>
<path d="M19.2213 23.0297C19.0793 23.8775 18.4399 24.4427 17.5875 24.4427C17.1612 24.4427 16.806 24.3014 16.5929 24.0188C16.3798 23.7362 16.3088 23.383 16.3798 23.0297C16.5219 22.182 17.1612 21.6168 18.0137 21.6168C18.4399 21.6168 18.7951 21.7581 19.0082 22.0407C19.1503 22.2526 19.2924 22.6059 19.2213 23.0297ZM21.2104 20.2038H19.7897C19.6476 20.2038 19.5765 20.2744 19.5055 20.4157L19.4345 20.8396L19.3634 20.6983C19.0793 20.2744 18.3689 20.0625 17.6585 20.0625C16.0246 20.0625 14.6749 21.2635 14.3907 22.9591C14.2487 23.8069 14.4618 24.584 14.959 25.1492C15.3853 25.6437 16.0246 25.8557 16.806 25.8557C18.0847 25.8557 18.7951 25.0079 18.7951 25.0079L18.7241 25.4318C18.7241 25.5731 18.7951 25.7144 19.0082 25.7144H20.2869C20.5 25.7144 20.6421 25.5731 20.7131 25.3612L21.4946 20.4157C21.4946 20.3451 21.4235 20.2038 21.2104 20.2038Z" fill="#263577"/>
<path d="M28.9536 20.2041H27.4618C27.3197 20.2041 27.1776 20.2747 27.1066 20.416L25.1175 23.3833L24.265 20.5573C24.194 20.3454 24.0519 20.2747 23.8388 20.2747H22.418C22.276 20.2747 22.1339 20.416 22.2049 20.628L23.8388 25.2908L22.347 27.4103C22.2049 27.5516 22.347 27.8342 22.5601 27.8342H24.0519C24.194 27.8342 24.3361 27.7635 24.4071 27.6222L29.2377 20.628C29.3088 20.416 29.1667 20.2041 28.9536 20.2041Z" fill="#263577"/>
<path d="M34.1394 20.2039C33.9973 21.2636 33.1448 21.2636 32.3634 21.2636H31.9372L32.2924 19.2148C32.2924 19.0735 32.4345 19.0028 32.5765 19.0028H32.7896C33.3579 19.0028 33.8552 19.0028 34.1394 19.2854C34.2104 19.568 34.2104 19.8506 34.1394 20.2039ZM33.7842 17.3779H30.7295C30.5164 17.3779 30.3743 17.5192 30.3033 17.7312L29.0956 25.5025C29.0956 25.6438 29.1667 25.7851 29.3798 25.7851H30.9426C31.0847 25.7851 31.2268 25.7145 31.2268 25.5025L31.582 23.3124C31.582 23.1005 31.7951 22.9592 32.0082 22.9592H33.0027C34.9918 22.9592 36.1284 21.9701 36.4836 20.0626C36.6257 19.2148 36.4836 18.579 36.1284 18.0844C35.6312 17.6605 34.8497 17.3779 33.7842 17.3779Z" fill="#2199D6"/>
<path d="M40.888 23.0297C40.7459 23.8775 40.1066 24.4427 39.2542 24.4427C38.8279 24.4427 38.4727 24.3014 38.2596 24.0188C38.0465 23.7362 37.9755 23.383 38.0465 23.0297C38.1886 22.182 38.8279 21.6168 39.6804 21.6168C40.1066 21.6168 40.4618 21.7581 40.6749 22.0407C40.817 22.2526 40.9591 22.6059 40.888 23.0297ZM42.8771 20.2038H41.4563C41.3143 20.2038 41.2432 20.2744 41.1722 20.4157L41.1012 20.8396L41.0301 20.6983C40.746 20.2744 40.0356 20.0625 39.3252 20.0625C37.6913 20.0625 36.3416 21.2635 36.0574 22.9591C35.9154 23.8069 36.1285 24.584 36.6257 25.1492C37.052 25.6437 37.6913 25.8557 38.4727 25.8557C39.7514 25.8557 40.4618 25.0079 40.4618 25.0079L40.3908 25.4318C40.3908 25.5731 40.4618 25.7144 40.6749 25.7144H41.9536C42.1667 25.7144 42.3088 25.5731 42.3798 25.3612L43.1613 20.4157C43.1613 20.3451 43.0192 20.2038 42.8771 20.2038Z" fill="#2199D6"/>
<path d="M44.582 17.5899L43.3033 25.5025C43.3033 25.6438 43.3743 25.7851 43.5875 25.7851H44.8661C45.0792 25.7851 45.2213 25.6438 45.2924 25.4319L46.5 17.6605C46.5 17.5192 46.429 17.3779 46.2159 17.3779H44.7951C44.7241 17.3779 44.653 17.5192 44.582 17.5899Z" fill="#2199D6"/>
</g>
</g>
<rect x="0.5" y="0.5" width="53" height="31" rx="3.5" stroke="#EDEBE9"/>
<defs>
<clipPath id="clip0">
<rect width="38.9999" height="23.6673" fill="white" transform="translate(7.50006 4.1665)"/>
</clipPath>
<clipPath id="clip1">
<rect width="11.3199" height="13.2113" fill="white" transform="translate(21.3401 4.1665)"/>
</clipPath>
<clipPath id="clip2">
<rect width="38.9999" height="10.456" fill="white" transform="translate(7.50006 17.3779)"/>
</clipPath>
</defs>
</svg>
