<svg width="17" height="17" viewBox="0 0 17 17" fill="none" xmlns="http://www.w3.org/2000/svg">
<path fill-rule="evenodd" clip-rule="evenodd" d="M13 7.16667C13 10.2963 10.4629 12.8333 7.33332 12.8333C4.20371 12.8333 1.66666 10.2963 1.66666 7.16667C1.66666 4.03705 4.20371 1.5 7.33332 1.5C10.4629 1.5 13 4.03705 13 7.16667ZM11.6806 12.2211C10.5134 13.2259 8.9943 13.8333 7.33332 13.8333C3.65142 13.8333 0.666656 10.8486 0.666656 7.16667C0.666656 3.48477 3.65142 0.5 7.33332 0.5C11.0152 0.5 14 3.48477 14 7.16667C14 8.82765 13.3926 10.3468 12.3877 11.514L16.8535 15.9798L16.1464 16.6869L11.6806 12.2211Z" fill="#201F1E"/>
</svg>
