<svg width="16" height="18" viewBox="0 0 16 18" fill="none" xmlns="http://www.w3.org/2000/svg">
<path fill-rule="evenodd" clip-rule="evenodd" d="M4.66406 4.50033H2.9987C2.35437 4.50033 1.83203 5.02266 1.83203 5.66699V15.667C1.83203 16.3113 2.35437 16.8337 2.9987 16.8337H12.9987C13.643 16.8337 14.1654 16.3113 14.1654 15.667V5.66699C14.1654 5.02266 13.643 4.50033 12.9987 4.50033H11.3307H4.66406ZM11.7984 3.50033H12.9987C14.1953 3.50033 15.1654 4.47038 15.1654 5.66699V15.667C15.1654 16.8636 14.1953 17.8337 12.9987 17.8337H2.9987C1.80208 17.8337 0.832031 16.8636 0.832031 15.667V5.66699C0.832031 4.47037 1.80208 3.50033 2.9987 3.50033H4.19638C4.44138 1.61948 6.04976 0.166992 7.9974 0.166992C9.94503 0.166992 11.5534 1.61948 11.7984 3.50033ZM10.7868 3.50033C10.5506 2.17399 9.39159 1.16699 7.9974 1.16699C6.6032 1.16699 5.4442 2.17399 5.20804 3.50033H10.7868Z" fill="black"/>
</svg>
