<svg width="17" height="16" viewBox="0 0 17 16" fill="none" xmlns="http://www.w3.org/2000/svg">
<path d="M15.1124 2.51226C14.7256 2.13856 14.2662 1.84211 13.7606 1.63985C13.2551 1.4376 12.7132 1.3335 12.1659 1.3335C11.6186 1.3335 11.0768 1.4376 10.5712 1.63985C10.0656 1.84211 9.60625 2.13856 9.21938 2.51226L8.41647 3.28746L7.61355 2.51226C6.83209 1.75776 5.77219 1.33389 4.66702 1.33389C3.56186 1.33389 2.50196 1.75776 1.72049 2.51226C0.939024 3.26676 0.5 4.29008 0.5 5.3571C0.5 6.42412 0.939024 7.44744 1.72049 8.20194L2.5234 8.97714L8.41647 14.6668L14.3095 8.97714L15.1124 8.20194C15.4995 7.82842 15.8065 7.38492 16.016 6.89679C16.2255 6.40867 16.3333 5.88547 16.3333 5.3571C16.3333 4.82873 16.2255 4.30554 16.016 3.81741C15.8065 3.32928 15.4995 2.88579 15.1124 2.51226Z" stroke="black" stroke-linecap="round" stroke-linejoin="round"/>
</svg>
