<svg width="53" height="32" viewBox="0 0 53 32" fill="none" xmlns="http://www.w3.org/2000/svg">
<rect x="0.5" y="0.5" width="52" height="31" rx="3.5" fill="white"/>
<path d="M45.1591 9.19727H42.3302C41.4749 9.19727 40.817 9.46042 40.4223 10.3157L35.0275 22.6183H38.8433C38.8433 22.6183 39.5012 20.9736 39.6328 20.5788C40.0275 20.5788 43.7775 20.5788 44.3038 20.5788C44.4354 21.0394 44.7644 22.5525 44.7644 22.5525H48.1854L45.1591 9.19727ZM40.6854 17.8157C41.0144 17.0262 42.1328 14.0657 42.1328 14.0657C42.1328 14.1315 42.4617 13.2762 42.5933 12.8157L42.8565 13.9999C42.8565 13.9999 43.5802 17.2236 43.7117 17.8815H40.6854V17.8157Z" fill="#3362AB"/>
<path d="M35.2907 18.2105C35.2907 20.9737 32.7907 22.8158 28.9091 22.8158C27.2643 22.8158 25.6854 22.4868 24.8301 22.0921L25.3565 19.0658L25.817 19.2632C27.0012 19.7895 27.7907 19.9868 29.238 19.9868C30.2907 19.9868 31.4091 19.5921 31.4091 18.6711C31.4091 18.0789 30.9486 17.6842 29.5012 17.0263C28.1196 16.3684 26.2775 15.3158 26.2775 13.4079C26.2775 10.7763 28.8433 9 32.4617 9C33.8433 9 35.0275 9.26316 35.7512 9.59211L35.2249 12.4868L34.9617 12.2237C34.3038 11.9605 33.4486 11.6974 32.1986 11.6974C30.817 11.7632 30.1591 12.3553 30.1591 12.8816C30.1591 13.4737 30.9486 13.9342 32.1986 14.5263C34.3038 15.5132 35.2907 16.6316 35.2907 18.2105Z" fill="#3362AB"/>
<path d="M3.18542 9.32908L3.25121 9.06592H8.90911C9.69858 9.06592 10.2907 9.32908 10.4881 10.1843L11.7381 16.1054C10.4881 12.9475 7.59332 10.3817 3.18542 9.32908Z" fill="#F9B50B"/>
<path d="M19.6986 9.19763L13.9749 22.5529H10.0933L6.80383 11.3687C9.17225 12.8818 11.1459 15.2503 11.8696 16.895L12.2644 18.2766L15.817 9.13184H19.6986V9.19763Z" fill="#3362AB"/>
<path d="M21.2118 9.13184H24.8302L22.5275 22.5529H18.9091L21.2118 9.13184Z" fill="#3362AB"/>
<rect x="0.5" y="0.5" width="52" height="31" rx="3.5" stroke="#EDEBE9"/>
</svg>
